<?xml version="1.0" encoding="UTF-8" standalone="no"?>
<!-- Created with Inkscape (http://www.inkscape.org/) -->

<svg
   xmlns:dc="http://purl.org/dc/elements/1.1/"
   xmlns:cc="http://creativecommons.org/ns#"
   xmlns:rdf="http://www.w3.org/1999/02/22-rdf-syntax-ns#"
   xmlns:svg="http://www.w3.org/2000/svg"
   xmlns="http://www.w3.org/2000/svg"
   xmlns:sodipodi="http://sodipodi.sourceforge.net/DTD/sodipodi-0.dtd"
   xmlns:inkscape="http://www.inkscape.org/namespaces/inkscape"
   width="16px"
   height="16px"
   id="svg3046"
   version="1.1"
   inkscape:version="0.48.4 r9939"
   sodipodi:docname="logo.svg"
   inkscape:export-filename="/project/trees/verilogtorouting.org/img/logo-32x32.png"
   inkscape:export-xdpi="180"
   inkscape:export-ydpi="180">
  <defs
     id="defs3048" />
  <sodipodi:namedview
     id="base"
     pagecolor="#ffffff"
     bordercolor="#666666"
     borderopacity="1.0"
     inkscape:pageopacity="0.0"
     inkscape:pageshadow="2"
     inkscape:zoom="22.627417"
     inkscape:cx="7.374302"
     inkscape:cy="10.919379"
     inkscape:current-layer="layer1"
     showgrid="true"
     inkscape:grid-bbox="true"
     inkscape:document-units="px"
     gridtolerance="10000"
     inkscape:snap-grids="true"
     inkscape:snap-to-guides="true"
     inkscape:window-width="1087"
     inkscape:window-height="1232"
     inkscape:window-x="99"
     inkscape:window-y="527"
     inkscape:window-maximized="0"
     guidetolerance="20"
     objecttolerance="20"
     inkscape:snap-global="true"
     inkscape:object-nodes="true"
     inkscape:snap-page="true">
    <inkscape:grid
       type="xygrid"
       id="grid3054"
       empspacing="5"
       visible="true"
       enabled="true"
       snapvisiblegridlinesonly="true"
       dotted="false" />
  </sodipodi:namedview>
  <metadata
     id="metadata3051">
    <rdf:RDF>
      <cc:Work
         rdf:about="">
        <dc:format>image/svg+xml</dc:format>
        <dc:type
           rdf:resource="http://purl.org/dc/dcmitype/StillImage" />
        <dc:title></dc:title>
      </cc:Work>
    </rdf:RDF>
  </metadata>
  <g
     id="layer1"
     inkscape:label="Layer 1"
     inkscape:groupmode="layer">
    <rect
       y="3"
       x="3"
       height="2"
       width="2"
       id="rect3084"
       style="fill:#ff6600" />
    <rect
       style="fill:#ff6600"
       id="rect3086"
       width="2"
       height="2"
       x="3"
       y="7" />
    <rect
       y="11"
       x="3"
       height="2"
       width="2"
       id="rect3088"
       style="fill:#ff6600" />
    <rect
       style="fill:#ff6600"
       id="rect3090"
       width="2"
       height="2"
       x="11"
       y="11" />
    <rect
       y="7"
       x="11"
       height="2"
       width="2"
       id="rect3092"
       style="fill:#ff6600" />
    <rect
       style="fill:#ff6600"
       id="rect3094"
       width="2"
       height="2"
       x="11"
       y="3" />
    <rect
       y="3"
       x="7"
       height="10"
       width="2"
       id="rect3096"
       style="fill:#87cefa;fill-opacity:0.98039216" />
    <path
       style="fill:#7a7a7a;fill-opacity:1"
       d="M 0,12.000001 0,11 0.99999994,11 2,11 2,12.000001 2,13 0.99999984,13 0,13 0,12.000001 z"
       id="path3870"
       inkscape:connector-curvature="0" />
    <path
       inkscape:connector-curvature="0"
       id="path2991"
       d="M 0,8.000001 0,7 0.99999994,7 2,7 2,8.000001 2,9 0.99999984,9 0,9 0,8.000001 z"
       style="fill:#7a7a7a;fill-opacity:1" />
    <path
       style="fill:#7a7a7a;fill-opacity:1"
       d="M 0,4.000001 0,3 0.99999994,3 2,3 2,4.000001 2,5 0.99999984,5 0,5 0,4.000001 z"
       id="path2993"
       inkscape:connector-curvature="0" />
    <path
       inkscape:connector-curvature="0"
       id="path2995"
       d="m 3,15 0,-1.000001 0.9999999,0 L 5,13.999999 5,15 l 0,0.999999 -1.0000002,0 L 3,15.999999 3,15 z"
       style="fill:#7a7a7a;fill-opacity:1" />
    <path
       style="fill:#7a7a7a;fill-opacity:1"
       d="m 7,15 0,-1.000001 0.9999999,0 L 9,13.999999 9,15 l 0,0.999999 -1.0000002,0 L 7,15.999999 7,15 z"
       id="path2997"
       inkscape:connector-curvature="0" />
    <path
       inkscape:connector-curvature="0"
       id="path2999"
       d="m 11,15 0,-1.000001 1,0 1,0 L 13,15 l 0,0.999999 -1,0 -1,0 L 11,15 z"
       style="fill:#7a7a7a;fill-opacity:1" />
    <path
       style="fill:#7a7a7a;fill-opacity:1"
       d="M 3,1.000001 3,0 3.9999999,0 5,0 5,1.000001 5,2 3.9999998,2 3,2 3,1.000001 z"
       id="path3001"
       inkscape:connector-curvature="0" />
    <path
       inkscape:connector-curvature="0"
       id="path3003"
       d="M 7,1.000001 7,0 7.9999999,0 9,0 9,1.000001 9,2 7.9999998,2 7,2 7,1.000001 z"
       style="fill:#7a7a7a;fill-opacity:1" />
    <path
       style="fill:#7a7a7a;fill-opacity:1"
       d="M 11,1.000001 11,0 12,0 13,0 13,1.000001 13,2 12,2 11,2 11,1.000001 z"
       id="path3005"
       inkscape:connector-curvature="0" />
    <path
       inkscape:connector-curvature="0"
       id="path3007"
       d="M 14,12.000001 14,11 l 1,0 1,0 0,1.000001 L 16,13 l -1,0 -1,0 0,-0.999999 z"
       style="fill:#7a7a7a;fill-opacity:1" />
    <path
       style="fill:#7a7a7a;fill-opacity:1"
       d="M 14,8.000001 14,7 15,7 16,7 16,8.000001 16,9 15,9 14,9 14,8.000001 z"
       id="path3009"
       inkscape:connector-curvature="0" />
    <path
       inkscape:connector-curvature="0"
       id="path3011"
       d="M 14,4.000001 14,3 15,3 16,3 16,4.000001 16,5 15,5 14,5 14,4.000001 z"
       style="fill:#7a7a7a;fill-opacity:1" />
  </g>
</svg>
